<svg xmlns="http://www.w3.org/2000/svg" xmlns:xlink="http://www.w3.org/1999/xlink" width="1280"
    zoomAndPan="magnify" viewBox="0 0 960 540.000001" height="720"
    preserveAspectRatio="xMidYMid meet" version="1.0">
    <defs>
        <g />
    </defs>
    <g fill="#fff" fill-opacity="1">
        <g transform="translate(135.379325, 372.016332)">
            <g>
                <path
                    d="M 472.78125 -79.953125 C 461.644531 -81.234375 450.421875 -81.875 439.109375 -81.875 C 434.148438 -82.050781 429.101562 -82.195312 423.96875 -82.3125 C 377.257812 -84.238281 330.4375 -84.734375 283.5 -83.796875 C 281.164062 -83.796875 279.238281 -83.796875 277.71875 -83.796875 C 275.15625 -83.972656 273.289062 -83.957031 272.125 -83.75 C 270.957031 -83.550781 270.023438 -82.910156 269.328125 -81.828125 C 268.628906 -80.742188 267.8125 -78.976562 266.875 -76.53125 C 266.226562 -75.132812 265.46875 -73.382812 264.59375 -71.28125 C 256.78125 -54.257812 249.609375 -36.941406 243.078125 -19.328125 C 238.828125 -7.960938 235.535156 3.695312 233.203125 15.65625 C 232.328125 19.382812 232.019531 23.015625 232.28125 26.546875 C 232.539062 30.078125 234.128906 33.238281 237.046875 36.03125 C 237.453125 36.320312 237.597656 36.6875 237.484375 37.125 C 237.367188 37.5625 237.101562 37.96875 236.6875 38.34375 C 236.28125 38.726562 235.847656 38.976562 235.390625 39.09375 C 228.441406 40.144531 224.269531 37.671875 222.875 31.671875 C 222.0625 28.285156 221.914062 24.8125 222.4375 21.25 C 222.4375 20.957031 222.4375 20.753906 222.4375 20.640625 C 222.957031 14.515625 224.050781 8.4375 225.71875 2.40625 C 227.382812 -3.625 229.234375 -9.675781 231.265625 -15.75 C 237.859375 -33.9375 245.117188 -51.894531 253.046875 -69.625 C 253.460938 -70.382812 253.785156 -71.144531 254.015625 -71.90625 C 254.421875 -72.78125 254.859375 -73.679688 255.328125 -74.609375 C 255.972656 -75.890625 256.554688 -77.171875 257.078125 -78.453125 C 257.597656 -79.742188 257.800781 -81.085938 257.6875 -82.484375 C 257.050781 -83.003906 256.410156 -83.320312 255.765625 -83.4375 C 255.117188 -83.5625 254.476562 -83.566406 253.84375 -83.453125 C 253.726562 -83.453125 253.582031 -83.453125 253.40625 -83.453125 C 247.925781 -83.453125 242.414062 -83.390625 236.875 -83.265625 C 235.351562 -83.265625 233.75 -83.265625 232.0625 -83.265625 C 230.019531 -83.148438 228.296875 -82.507812 226.890625 -81.34375 C 225.492188 -80.175781 224.15625 -78.75 222.875 -77.0625 C 221.1875 -74.90625 219.492188 -72.75 217.796875 -70.59375 C 210.628906 -61.4375 203.398438 -52.367188 196.109375 -43.390625 C 185.316406 -30.328125 174.046875 -17.726562 162.296875 -5.59375 C 150.546875 6.53125 138.082031 17.898438 124.90625 28.515625 C 108.34375 42.160156 90.757812 54.171875 72.15625 64.546875 C 43.707031 79.828125 13.882812 87.0625 -17.3125 86.25 C -46.707031 85.601562 -73.210938 77.671875 -96.828125 62.453125 C -103.472656 58.191406 -109.363281 53.0625 -114.5 47.0625 C -117.9375 42.800781 -120.660156 38.207031 -122.671875 33.28125 C -124.691406 28.351562 -125.703125 23.003906 -125.703125 17.234375 C -125.410156 10.296875 -123.816406 3.867188 -120.921875 -2.046875 C -118.035156 -7.972656 -114.03125 -13.351562 -108.90625 -18.1875 C -101.84375 -25.007812 -94.085938 -30.785156 -85.640625 -35.515625 C -77.410156 -40.296875 -68.9375 -44.476562 -60.21875 -48.0625 C -51.5 -51.644531 -42.707031 -54.835938 -33.84375 -57.640625 C -19.5 -62.242188 -5.007812 -66.117188 9.625 -69.265625 C 24.257812 -72.421875 38.953125 -75.109375 53.703125 -77.328125 C 88.691406 -82.160156 123.769531 -85.367188 158.9375 -86.953125 C 176.894531 -88.054688 194.796875 -88.609375 212.640625 -88.609375 C 217.535156 -88.492188 221.328125 -90.5625 224.015625 -94.8125 C 228.734375 -101.46875 233.484375 -108.144531 238.265625 -114.84375 C 245.671875 -125.113281 252.960938 -135.550781 260.140625 -146.15625 C 293.492188 -195.957031 325.445312 -246.578125 356 -298.015625 C 358.570312 -302.390625 361.082031 -306.820312 363.53125 -311.3125 C 364.695312 -313.582031 365.921875 -315.882812 367.203125 -318.21875 C 368.722656 -321.195312 371.144531 -322.859375 374.46875 -323.203125 C 376.269531 -323.203125 377.59375 -322.691406 378.4375 -321.671875 C 379.289062 -320.648438 379.394531 -319.296875 378.75 -317.609375 C 378.101562 -316.210938 377.375 -314.867188 376.5625 -313.578125 C 371.601562 -304.710938 367.203125 -295.734375 363.359375 -286.640625 C 361.898438 -283.429688 360.46875 -280.285156 359.0625 -277.203125 C 345.59375 -247.984375 332.066406 -218.738281 318.484375 -189.46875 C 308.097656 -166.894531 297.628906 -144.265625 287.078125 -121.578125 C 284.046875 -114.878906 281.046875 -108.203125 278.078125 -101.546875 C 277.429688 -100.148438 276.785156 -98.8125 276.140625 -97.53125 C 276.023438 -97.238281 275.910156 -96.914062 275.796875 -96.5625 C 275.390625 -95.632812 275.050781 -94.71875 274.78125 -93.8125 C 274.519531 -92.90625 274.597656 -92.015625 275.015625 -91.140625 C 275.890625 -90.503906 276.90625 -90.15625 278.0625 -90.09375 C 279.226562 -90.03125 280.3125 -90 281.3125 -90 C 282.125 -90.125 282.851562 -90.1875 283.5 -90.1875 C 288.332031 -90.0625 293.195312 -90.0625 298.09375 -90.1875 C 304.75 -90.1875 311.425781 -90.125 318.125 -90 C 354.519531 -89.363281 390.941406 -88.578125 427.390625 -87.640625 C 439.335938 -87.410156 451.203125 -86.914062 462.984375 -86.15625 C 464.035156 -86.039062 465.144531 -85.984375 466.3125 -85.984375 C 466.945312 -85.984375 467.644531 -85.984375 468.40625 -85.984375 C 469.925781 -85.984375 471.398438 -85.851562 472.828125 -85.59375 C 474.253906 -85.332031 475.609375 -84.820312 476.890625 -84.0625 C 477.117188 -83.882812 477.289062 -83.601562 477.40625 -83.21875 C 477.53125 -82.84375 477.535156 -82.539062 477.421875 -82.3125 C 477.421875 -81.90625 477.257812 -81.539062 476.9375 -81.21875 C 476.613281 -80.894531 476.335938 -80.675781 476.109375 -80.5625 C 475.054688 -80.15625 473.945312 -79.953125 472.78125 -79.953125 Z M 212.03125 -78.984375 C 212.4375 -79.796875 212.476562 -80.523438 212.15625 -81.171875 C 211.84375 -81.816406 211.304688 -82.140625 210.546875 -82.140625 C 209.378906 -82.253906 208.15625 -82.253906 206.875 -82.140625 C 206.226562 -82.140625 205.582031 -82.140625 204.9375 -82.140625 C 160.914062 -81.609375 116.863281 -78.570312 72.78125 -73.03125 C 55.925781 -71 39.160156 -68.316406 22.484375 -64.984375 C 5.804688 -61.660156 -10.722656 -57.492188 -27.109375 -52.484375 C -35.859375 -49.796875 -44.488281 -46.71875 -53 -43.25 C -61.519531 -39.78125 -69.832031 -35.65625 -77.9375 -30.875 C -86.394531 -26.15625 -94.09375 -20.382812 -101.03125 -13.5625 C -109.132812 -5.21875 -113.695312 3.660156 -114.71875 13.078125 C -115.738281 22.492188 -113.21875 31.578125 -107.15625 40.328125 C -102.664062 46.453125 -97.300781 51.695312 -91.0625 56.0625 C -68.3125 72.21875 -41.222656 80.441406 -9.796875 80.734375 C -1.742188 80.734375 7.5 79.6875 17.9375 77.59375 C 28.3125 75.425781 38.335938 72.257812 48.015625 68.09375 C 57.703125 63.925781 67.09375 59.015625 76.1875 53.359375 C 98.632812 39.535156 119.421875 23.441406 138.546875 5.078125 C 151.785156 -7.347656 164.265625 -20.425781 175.984375 -34.15625 C 187.710938 -47.882812 199.085938 -61.863281 210.109375 -76.09375 C 210.742188 -77.144531 211.382812 -78.109375 212.03125 -78.984375 Z M 265.5625 -97.09375 C 274.019531 -116.332031 282.738281 -135.519531 291.71875 -154.65625 C 292.125 -155.695312 293.476562 -158.710938 295.78125 -163.703125 C 298.082031 -168.691406 300.734375 -174.492188 303.734375 -181.109375 C 306.742188 -187.722656 309.5 -193.972656 312 -199.859375 C 314.507812 -205.753906 316.273438 -210.175781 317.296875 -213.125 C 318.316406 -216.070312 318.007812 -216.347656 316.375 -213.953125 C 315.96875 -213.429688 315.648438 -212.90625 315.421875 -212.375 C 314.023438 -210.332031 312.679688 -208.289062 311.390625 -206.25 C 300.722656 -189.695312 289.992188 -173.164062 279.203125 -156.65625 C 268.421875 -140.15625 257.253906 -123.890625 245.703125 -107.859375 C 244.597656 -106.335938 243.460938 -104.734375 242.296875 -103.046875 C 240.078125 -100.015625 237.890625 -96.953125 235.734375 -93.859375 C 234.859375 -92.578125 234.609375 -91.507812 234.984375 -90.65625 C 235.367188 -89.8125 236.257812 -89.390625 237.65625 -89.390625 C 239.988281 -89.390625 242.289062 -89.453125 244.5625 -89.578125 C 248.175781 -89.859375 251.765625 -90 255.328125 -90 C 258.066406 -89.882812 260.191406 -90.46875 261.703125 -91.75 C 263.222656 -93.039062 264.507812 -94.820312 265.5625 -97.09375 Z M 265.5625 -97.09375 " />
            </g>
        </g>
    </g>
    <g fill="#fff" fill-opacity="1">
        <g transform="translate(409.039617, 372.016332)">
            <g />
        </g>
    </g>
    <g fill="#fff" fill-opacity="1">
        <g transform="translate(471.57503, 372.016332)">
            <g>
                <path
                    d="M 42.515625 -38.046875 L 35.421875 -38.21875 C 28.253906 -38.457031 20.410156 -39.039062 11.890625 -39.96875 C 11.773438 -39.96875 11.660156 -40.085938 11.546875 -40.328125 C 11.316406 -40.328125 11.128906 -40.425781 10.984375 -40.625 C 10.835938 -40.832031 10.820312 -41.257812 10.9375 -41.90625 C 11.570312 -44.582031 12.535156 -45.976562 13.828125 -46.09375 C 20.640625 -47.03125 27.375 -47.554688 34.03125 -47.671875 L 38.140625 -47.84375 L 65.078125 -47.84375 C 66.597656 -47.84375 68.054688 -47.726562 69.453125 -47.5 C 70.503906 -47.207031 70.648438 -45.71875 69.890625 -43.03125 C 69.078125 -40.351562 68.113281 -38.867188 67 -38.578125 C 66.476562 -38.460938 65.953125 -38.40625 65.421875 -38.40625 L 61.234375 -38.40625 C 55.285156 -38.164062 49.046875 -38.046875 42.515625 -38.046875 Z M 42.515625 -38.046875 " />
            </g>
        </g>
    </g>
    <g fill="#fff" fill-opacity="1">
        <g transform="translate(546.092262, 372.016332)">
            <g />
        </g>
    </g>
    <g fill="#fff" fill-opacity="1">
        <g transform="translate(608.627674, 372.016332)">
            <g>
                <path
                    d="M 36.734375 -35.15625 C 23.265625 -7.8125 16.148438 6.617188 15.390625 8.140625 C 14.515625 9.828125 13.613281 11.578125 12.6875 13.390625 C 12.445312 13.847656 12.269531 14.34375 12.15625 14.875 C 10.351562 18.375 8.601562 21.898438 6.90625 25.453125 C -3.707031 46.910156 -13.820312 68.457031 -23.4375 90.09375 C -23.4375 90.382812 -23.523438 90.644531 -23.703125 90.875 C -23.816406 91.40625 -24.050781 91.929688 -24.40625 92.453125 C -25.6875 94.265625 -27.289062 95.023438 -29.21875 94.734375 C -29.738281 94.847656 -30.265625 94.847656 -30.796875 94.734375 C -31.835938 94.492188 -32.632812 94.050781 -33.1875 93.40625 C -33.75 92.769531 -33.851562 91.867188 -33.5 90.703125 C -32.101562 86.453125 -30.441406 82.226562 -28.515625 78.03125 C -21.804688 63.800781 -15.128906 49.484375 -8.484375 35.078125 C -4.515625 26.503906 -0.519531 17.898438 3.5 9.265625 C 5.25 5.828125 10.65625 -5.085938 19.71875 -23.484375 C 28.789062 -41.878906 34.082031 -52.679688 35.59375 -55.890625 C 47.550781 -80.265625 60.117188 -104.40625 73.296875 -128.3125 C 81.753906 -143.945312 90.09375 -159.664062 98.3125 -175.46875 C 99.25 -177.394531 100.414062 -179.113281 101.8125 -180.625 C 102.976562 -181.789062 104.378906 -182.492188 106.015625 -182.734375 C 106.535156 -183.023438 107.0625 -183.082031 107.59375 -182.90625 C 108.875 -183.082031 109.863281 -182.742188 110.5625 -181.890625 C 111.257812 -181.046875 111.40625 -180.039062 111 -178.875 C 110.644531 -178 110.265625 -177.097656 109.859375 -176.171875 C 107.585938 -170.679688 105.023438 -165.226562 102.171875 -159.8125 C 92.660156 -141.5 83.035156 -123.21875 73.296875 -104.96875 C 68.285156 -95.632812 63.359375 -86.273438 58.515625 -76.890625 C 56.066406 -72.398438 53.675781 -67.847656 51.34375 -63.234375 C 50.46875 -61.546875 49.59375 -59.828125 48.71875 -58.078125 C 48.539062 -57.785156 48.394531 -57.523438 48.28125 -57.296875 C 47.9375 -56.648438 47.660156 -56.003906 47.453125 -55.359375 C 47.242188 -54.722656 47.257812 -54.144531 47.5 -53.625 C 47.90625 -53.09375 48.429688 -52.769531 49.078125 -52.65625 C 49.710938 -52.769531 50.351562 -52.882812 51 -53 C 51.226562 -53.175781 51.488281 -53.320312 51.78125 -53.4375 C 58.832031 -55.476562 65.890625 -57.519531 72.953125 -59.5625 C 92.722656 -65.34375 112.390625 -71.4375 131.953125 -77.84375 C 151.515625 -84.257812 170.914062 -91.375 190.15625 -99.1875 C 202.175781 -104.09375 214.0625 -109.269531 225.8125 -114.71875 C 237.5625 -120.164062 249.09375 -126.21875 260.40625 -132.875 C 269.851562 -138.40625 278.742188 -144.90625 287.078125 -152.375 C 291.222656 -156.050781 294.835938 -160.222656 297.921875 -164.890625 C 304.160156 -174.210938 304.539062 -182.925781 299.0625 -191.03125 C 295.738281 -195.875 291.507812 -199.84375 286.375 -202.9375 C 278.675781 -207.945312 270.335938 -211.851562 261.359375 -214.65625 C 239.378906 -221.363281 216.519531 -225.617188 192.78125 -227.421875 C 178.84375 -228.410156 164.734375 -228.96875 150.453125 -229.09375 C 142.753906 -229.09375 135 -228.914062 127.1875 -228.5625 C 115.519531 -228.039062 103.8125 -227.003906 92.0625 -225.453125 C 80.3125 -223.910156 68.601562 -221.273438 56.9375 -217.546875 C 49.53125 -215.148438 42.300781 -212.085938 35.25 -208.359375 C 29.820312 -205.785156 25.007812 -202.375 20.8125 -198.125 C 19.644531 -196.84375 18.273438 -195.878906 16.703125 -195.234375 C 15.941406 -194.878906 15.242188 -194.765625 14.609375 -194.890625 C 13.328125 -194.765625 12.25 -195.140625 11.375 -196.015625 C 10.207031 -197.304688 10.207031 -198.707031 11.375 -200.21875 C 13.175781 -202.664062 15.257812 -204.789062 17.625 -206.59375 C 19.988281 -208.40625 22.453125 -210.015625 25.015625 -211.421875 C 36.796875 -218.242188 49.039062 -223.257812 61.75 -226.46875 C 77.257812 -230.425781 92.800781 -232.84375 108.375 -233.71875 C 123.476562 -234.882812 138.613281 -235.523438 153.78125 -235.640625 L 154.125 -235.640625 C 156.976562 -235.640625 159.863281 -235.640625 162.78125 -235.640625 C 177.300781 -235.410156 191.675781 -234.679688 205.90625 -233.453125 C 220.132812 -232.234375 234.1875 -230.078125 248.0625 -226.984375 C 255.238281 -225.347656 262.296875 -223.40625 269.234375 -221.15625 C 276.171875 -218.914062 282.847656 -216.109375 289.265625 -212.734375 C 296.316406 -209.285156 302.46875 -204.796875 307.71875 -199.265625 C 319.269531 -186.609375 318.6875 -172.582031 305.96875 -157.1875 C 300.082031 -150.363281 293.46875 -144.382812 286.125 -139.25 C 276.90625 -132.601562 267.425781 -126.613281 257.6875 -121.28125 C 247.945312 -115.945312 238.003906 -111.035156 227.859375 -106.546875 C 206.921875 -96.921875 185.738281 -88.285156 164.3125 -80.640625 C 142.882812 -73.003906 121.351562 -65.976562 99.71875 -59.5625 C 82.75 -54.4375 65.804688 -49.507812 48.890625 -44.78125 C 46.210938 -44.144531 43.835938 -43.082031 41.765625 -41.59375 C 39.691406 -40.101562 38.015625 -37.957031 36.734375 -35.15625 Z M 331.640625 37.484375 C 337.210938 42.296875 303.960938 33.941406 231.890625 12.421875 C 182.492188 -2.617188 132.660156 -16.816406 82.390625 -30.171875 C 68.398438 -33.734375 54.347656 -37.175781 40.234375 -40.5 C 34.578125 -41.957031 28.921875 -43.328125 23.265625 -44.609375 C 21.335938 -45.078125 19.414062 -45.457031 17.5 -45.75 C 17.144531 -45.75 16.765625 -45.804688 16.359375 -45.921875 C 15.078125 -45.921875 15.265625 -47.625 16.921875 -51.03125 C 18.585938 -54.445312 20.644531 -55.515625 23.09375 -54.234375 C 26.300781 -52.546875 33.863281 -50.035156 45.78125 -46.703125 C 57.707031 -43.378906 73.117188 -39.15625 92.015625 -34.03125 C 127.765625 -24.632812 170.484375 -12.675781 220.171875 1.84375 C 288.921875 20.789062 326.078125 32.671875 331.640625 37.484375 Z M 331.640625 37.484375 " />
            </g>
        </g>
    </g>
    <g fill="#fff" fill-opacity="1">
        <g transform="translate(798.415241, 372.016332)">
            <g>
                <path
                    d="M 13.90625 -20.734375 L 13.640625 -20.734375 C 5.191406 -20.847656 -0.367188 -22.726562 -3.046875 -26.375 C -5.734375 -30.019531 -5.625 -34.875 -2.71875 -40.9375 C -0.257812 -45.539062 2.832031 -49.5625 6.5625 -53 C 7.84375 -54.164062 9.15625 -55.097656 10.5 -55.796875 C 11.84375 -56.503906 13.359375 -56.859375 15.046875 -56.859375 C 16.035156 -57.035156 17.171875 -56.859375 18.453125 -56.328125 C 18.859375 -56.210938 19.269531 -56.066406 19.6875 -55.890625 C 20.675781 -56.066406 21.632812 -56.390625 22.5625 -56.859375 C 22.800781 -57.035156 23.125 -57.179688 23.53125 -57.296875 C 25.457031 -58.054688 27.5 -58.375 29.65625 -58.25 C 30.53125 -58.25 31.429688 -58.25 32.359375 -58.25 C 35.804688 -57.726562 38.398438 -56.285156 40.140625 -53.921875 C 41.890625 -51.566406 42.503906 -48.695312 41.984375 -45.3125 C 41.691406 -43.269531 41.050781 -41.34375 40.0625 -39.53125 C 33.351562 -27.519531 24.8125 -21.253906 14.4375 -20.734375 Z M 27.734375 -52.046875 C 23.117188 -52.222656 19.019531 -50.894531 15.4375 -48.0625 C 11.851562 -45.238281 9.1875 -41.988281 7.4375 -38.3125 C 5.6875 -34.632812 5.203125 -31.613281 5.984375 -29.25 C 6.773438 -26.894531 9.210938 -26.242188 13.296875 -27.296875 C 17.898438 -28.691406 21.96875 -31.3125 25.5 -35.15625 C 29.03125 -39.007812 31.1875 -42.671875 31.96875 -46.140625 C 32.757812 -49.609375 31.347656 -51.578125 27.734375 -52.046875 Z M 27.734375 -52.046875 " />
            </g>
        </g>
    </g>
    <g fill="#fff" fill-opacity="1">
        <g transform="translate(841.272486, 372.016332)">
            <g>
                <path
                    d="M 44.78125 -138.90625 C 45.070312 -139.375 45.695312 -139.765625 46.65625 -140.078125 C 47.625 -140.398438 48.617188 -140.632812 49.640625 -140.78125 C 50.660156 -140.925781 51.546875 -140.894531 52.296875 -140.6875 C 53.054688 -140.488281 53.378906 -140.128906 53.265625 -139.609375 C 52.628906 -136.921875 51.671875 -134.296875 50.390625 -131.734375 C 50.265625 -131.378906 50.054688 -130.941406 49.765625 -130.421875 C 44.929688 -119.222656 40.003906 -108.113281 34.984375 -97.09375 C 34.222656 -95.457031 33.523438 -93.851562 32.890625 -92.28125 C 31.078125 -88.550781 28.832031 -84.003906 26.15625 -78.640625 C 23.175781 -72.984375 20.609375 -67.789062 18.453125 -63.0625 C 20.492188 -65.507812 23.0625 -67.300781 26.15625 -68.4375 C 29.25 -69.582031 31.609375 -70.15625 33.234375 -70.15625 C 39.421875 -70.039062 42.832031 -66.976562 43.46875 -60.96875 C 44.457031 -54.144531 43.234375 -47.203125 39.796875 -40.140625 C 36.359375 -33.085938 31.8125 -27.316406 26.15625 -22.828125 C 21.375 -20.148438 16.835938 -18.96875 12.546875 -19.28125 C 8.265625 -19.601562 4.460938 -21.691406 1.140625 -25.546875 C 0.734375 -25.546875 0.3125 -25.351562 -0.125 -24.96875 C -0.5625 -24.59375 -1.046875 -24.140625 -1.578125 -23.609375 C -2.210938 -22.859375 -2.910156 -22.28125 -3.671875 -21.875 C -4.203125 -21.632812 -4.753906 -21.570312 -5.328125 -21.6875 C -5.910156 -21.8125 -6.378906 -21.988281 -6.734375 -22.21875 C -8.015625 -23.269531 -8.421875 -24.550781 -7.953125 -26.0625 C -3.054688 -38.894531 2.695312 -52.25 9.3125 -66.125 C 15.9375 -80.007812 22.570312 -93.539062 29.21875 -106.71875 C 32.007812 -112.601562 34.78125 -118.316406 37.53125 -123.859375 C 38.632812 -126.015625 39.710938 -128.257812 40.765625 -130.59375 C 42.046875 -133.28125 43.382812 -136.050781 44.78125 -138.90625 Z M 22.828125 -59.5625 C 18.335938 -56.351562 14.457031 -52.445312 11.1875 -47.84375 C 7.925781 -43.238281 6.765625 -38.367188 7.703125 -33.234375 C 8.160156 -30.265625 9.351562 -28.164062 11.28125 -26.9375 C 13.207031 -25.71875 15.453125 -26.15625 18.015625 -28.25 C 20.585938 -30.644531 23.15625 -33.648438 25.71875 -37.265625 C 28.28125 -40.878906 30.347656 -44.726562 31.921875 -48.8125 C 33.203125 -52.425781 33.972656 -55.570312 34.234375 -58.25 C 34.503906 -60.9375 33.789062 -62.570312 32.09375 -63.15625 C 30.40625 -63.738281 27.316406 -62.539062 22.828125 -59.5625 Z M 22.828125 -59.5625 " />
            </g>
        </g>
    </g>
    <g fill="#fff" fill-opacity="1">
        <g transform="translate(886.141277, 372.016332)">
            <g>
                <path
                    d="M 34.765625 -36.859375 C 31.648438 -33.160156 27.960938 -29.765625 23.703125 -26.671875 C 19.441406 -23.585938 14.628906 -21.503906 9.265625 -20.421875 C 3.898438 -19.347656 -0.265625 -19.742188 -3.234375 -21.609375 C -6.210938 -23.472656 -6.796875 -27.613281 -4.984375 -34.03125 C -2.648438 -40.675781 0.554688 -47 4.640625 -53 C 5.566406 -54.289062 6.90625 -55.195312 8.65625 -55.71875 C 9.9375 -56.007812 11.054688 -55.789062 12.015625 -55.0625 C 12.984375 -54.332031 13.351562 -53.414062 13.125 -52.3125 C 12.25 -50.207031 11.285156 -48.101562 10.234375 -46 C 9.179688 -43.90625 8.484375 -42.539062 8.140625 -41.90625 C 6.097656 -38.164062 4.664062 -34.253906 3.84375 -30.171875 C 3.84375 -27.835938 6.960938 -27.691406 13.203125 -29.734375 C 19.441406 -31.773438 25.503906 -35.519531 31.390625 -40.96875 C 37.285156 -46.425781 40.101562 -48.03125 39.84375 -45.78125 C 39.582031 -43.539062 37.890625 -40.566406 34.765625 -36.859375 Z M 19.5 -66.125 C 19.207031 -65.894531 18.609375 -65.617188 17.703125 -65.296875 C 16.804688 -64.972656 15.847656 -64.738281 14.828125 -64.59375 C 13.804688 -64.445312 13.003906 -64.609375 12.421875 -65.078125 C 11.835938 -65.546875 11.804688 -66.476562 12.328125 -67.875 C 13.265625 -70.320312 14.242188 -72.460938 15.265625 -74.296875 C 16.285156 -76.140625 17.613281 -78.171875 19.25 -80.390625 C 20.289062 -81.378906 21.421875 -81.914062 22.640625 -82 C 23.867188 -82.09375 24.890625 -81.773438 25.703125 -81.046875 C 26.523438 -80.316406 26.765625 -79.3125 26.421875 -78.03125 C 25.128906 -73.414062 22.820312 -69.445312 19.5 -66.125 Z M 19.5 -66.125 " />
            </g>
        </g>
    </g>
</svg>